#!OML:ASF H:\Terrain\Walking\May29\JustinRory\rory.ASF
:FULLY-SPECIFIED
:DEGREES
386
root 11.3845 10.1651 11.3965 -31.7298 -21.4577 1.24391
lowerback 41.7819 -4.56052 -14.2369
upperback 15.1092 -12.1046 -2.53829
thorax -0.64512 -7.03007 8.36565
lowerneck 13.3863 -27.6809 -14.3568
upperneck -22.4503 -36.5928 35.386
head 0.896962 -20.6728 10.9482
rclavicle -4.77083e-015 2.94201e-014
rhumerus -18.6504 58.9723 -95.8896
rradius 41.5166
rwrist -38.1446
rhand 18.667 9.41067
rfingers 7.12502
rthumb 43.2914 -14.7315
lclavicle -4.77083e-015 2.94201e-014
lhumerus -62.0174 -20.3002 107.85
lradius 67.4427
lwrist 80.1001
lhand -24.9413 25.0474
lfingers 7.12502
lthumb 1.56825 55.0214
rfemur -71.0246 -1.29172 18.3902
rtibia 110.383
rfoot -3.80645 3.94663
rtoes -3.85298
lfemur -68.8402 24.1999 -1.43873
ltibia 110.175
lfoot -4.29714 -7.46274
ltoes 1.959
387
root 11.3856 10.166 11.3922 -31.5625 -21.7725 1.09244
lowerback 41.5163 -4.64451 -13.8241
upperback 15.1708 -12.0081 -2.60476
thorax -0.614948 -6.96303 8.05814
lowerneck 13.0274 -27.8402 -14.0666
upperneck -22.2757 -36.7711 35.2643
head 0.951515 -20.7334 10.7925
rclavicle -1.37161e-013 1.24837e-013
rhumerus -18.7566 58.9151 -96.0382
rradius 41.4911
rwrist -38.3646
rhand 12.8511 15.2676
rfingers 7.12502
rthumb 37.8252 -10.5789
lclavicle -1.37161e-013 1.24837e-013
lhumerus -62.2425 -20.9594 108.3
lradius 67.4325
lwrist 80.3003
lhand -25.8088 26.0245
lfingers 7.12502
lthumb 0.730393 56.003
rfemur -71.0644 -1.08691 18.1728
rtibia 109.935
rfoot -4.58524 2.41857
rtoes -4.31087
lfemur -69.2062 24.4026 -1.43448
ltibia 110.194
lfoot -4.61404 -8.50744
ltoes 1.1601
388
root 11.3911 10.1561 11.3906 -30.8201 -22.5955 0.263914
lowerback 41.1938 -4.8517 -12.872
upperback 15.0821 -11.8423 -2.41463
thorax -0.804343 -6.82363 7.77049
lowerneck 12.8856 -27.9027 -14.0023
upperneck -22.1697 -36.8571 35.2494
head 1.00452 -20.7621 10.7304
rclavicle -3.02153e-014 -2.22639e-014
rhumerus -18.806 59.4808 -96.0583
rradius 41.415
rwrist -38.908
rhand 11.6651 17.3436
rfingers 7.12502
rthumb 36.7039 -8.79685
lclavicle -3.02153e-014 -2.22639e-014
lhumerus -62.2532 -21.1683 108.373
lradius 67.3787
lwrist 80.2767
lhand -27.5008 26.0971
lfingers 7.12502
lthumb -0.903802 56.075
rfemur -71.3467 -0.481586 18.8977
rtibia 109.342
rfoot -5.00248 0.464477
rtoes -5.92282
lfemur -69.8041 24.9143 -0.564858
ltibia 109.981
lfoot -4.9519 -9.96858
ltoes 0.655968
389
root 11.396 10.1431 11.3883 -29.6668 -23.857 -1.19131
lowerback 40.9191 -5.14012 -11.5416
upperback 14.9173 -11.6392 -1.99566
thorax -1.12122 -6.65191 7.54393
lowerneck 12.9994 -27.8121 -14.1249
upperneck -22.2443 -36.7493 35.3902
head 1.00231 -20.7273 10.8151
rclavicle -1.04561e-013 6.67916e-014
rhumerus -18.8556 59.793 -96.0777
rradius 41.3625
rwrist -38.9747
rhand 10.9952 18.0385
rfingers 7.12502
rthumb 36.0696 -8.26085
lclavicle -1.04561e-013 6.67916e-014
lhumerus -62.2263 -21.0758 108.448
lradius 67.3459
lwrist 80.0806
lhand -28.5661 26.4816
lfingers 7.12502
lthumb -1.93266 56.4526
rfemur -71.6185 0.577908 20.4126
rtibia 108.535
rfoot -5.24386 -2.10783
rtoes -6.2354
lfemur -70.6582 25.8836 1.04441
ltibia 109.768
lfoot -5.04867 -11.4681
ltoes -0.0790126
390
root 11.3953 10.1276 11.3956 -29.1102 -24.5421 -1.82517
lowerback 40.7113 -5.29283 -10.983
upperback 14.8457 -11.5911 -1.87102
thorax -1.22951 -6.59878 7.39554
lowerneck 13.0881 -27.7142 -14.1033
upperneck -22.2676 -36.6161 35.4665
head 0.970309 -20.6802 10.8843
rclavicle 1.51076e-014 1.74931e-014
rhumerus -18.9318 59.8531 -96.3088
rradius 41.2404
rwrist -38.8209
rhand 10.6339 17.9575
rfingers 7.12502
rthumb 35.7274 -8.42549
lclavicle 1.51076e-014 1.74931e-014
lhumerus -62.3309 -21.1085 108.589
lradius 67.3404
lwrist 80.1332
lhand -29.6591 26.1942
lfingers 7.12502
lthumb -2.98821 56.153
rfemur -71.6781 1.19247 20.7946
rtibia 107.812
rfoot -5.70707 -4.2061
rtoes -5.67751
lfemur -70.9663 26.4561 1.44208
ltibia 109.429
lfoot -4.7668 -11.7486
ltoes 1.36938
391
root 11.3954 10.1259 11.3934 -29.1282 -24.6262 -1.47077
lowerback 40.4601 -5.25766 -11.2553
upperback 14.8037 -11.6329 -2.00559
thorax -1.16744 -6.62525 7.37787
lowerneck 13.3349 -27.5701 -14.1674
upperneck -22.3516 -36.4333 35.6654
head 0.933585 -20.6294 11.0266
rclavicle -2.10712e-014 -2.38542e-014
rhumerus -19.0697 59.9282 -96.5976
rradius 41.0324
rwrist -38.694
rhand 10.6762 18.118
rfingers 7.12502
rthumb 35.7674 -8.2553
lclavicle -2.10712e-014 -2.38542e-014
lhumerus -62.5216 -21.046 108.672
lradius 67.2989
lwrist 79.9568
lhand -30.698 25.6423
lfingers 7.12502
lthumb -3.9915 55.5847
rfemur -71.6939 1.42231 19.9475
rtibia 107.096
rfoot -5.93493 -5.63833
rtoes -3.97034
lfemur -70.8524 26.3818 0.697062
ltibia 108.901
lfoot -4.71188 -11.5403
ltoes 3.52398
392
root 11.3965 10.1184 11.3959 -29.0861 -24.775 -1.39377
lowerback 40.3961 -5.21024 -11.3278
upperback 14.7159 -11.5944 -1.92705
thorax -1.22307 -6.60509 7.48749
lowerneck 13.5564 -27.49 -14.4398
upperneck -22.539 -36.3519 35.897
head 0.938397 -20.6185 11.1549
rclavicle -1.04561e-013 3.49861e-014
rhumerus -19.0642 59.7974 -96.3929
rradius 40.976
rwrist -38.5395
rhand 11.1883 18.5771
rfingers 7.12502
rthumb 36.2525 -7.67699
lclavicle -1.04561e-013 3.49861e-014
lhumerus -62.6452 -20.8479 108.849
lradius 67.0982
lwrist 79.4778
lhand -31.8499 26.2513
lfingers 7.12502
lthumb -5.10381 56.1698
rfemur -71.1577 1.68604 19.4039
rtibia 106.237
rfoot -6.08193 -7.25013
rtoes -3.42027
lfemur -70.6502 26.2386 0.325933
ltibia 108.308
lfoot -5.18067 -11.6732
ltoes 2.56233
393
root 11.3993 10.1162 11.3992 -29.0628 -24.9939 -1.65537
lowerback 40.6572 -5.20087 -11.2135
upperback 14.5853 -11.5647 -1.67638
thorax -1.42674 -6.58006 7.7244
lowerneck 13.6439 -27.4846 -14.7555
upperneck -22.7147 -36.3728 35.9643
head 0.955061 -20.6258 11.1974
rclavicle 7.07673e-014 -2.54444e-014
rhumerus -19.2606 59.8434 -96.1179
rradius 41.1397
rwrist -38.4451
rhand 14.8229 13.5102
rfingers 7.12502
rthumb 39.6849 -11.8101
lclavicle 7.07673e-014 -2.54444e-014
lhumerus -62.7 -20.6784 109.194
lradius 66.8151
lwrist 79.2483
lhand -33.724 24.9362
lfingers 7.12502
lthumb -6.9131 54.8033
rfemur -70.4779 1.98942 19.1761
rtibia 105.312
rfoot -6.28263 -8.56104
rtoes -3.11579
lfemur -70.0727 26.025 0.37158
ltibia 107.511
lfoot -5.64961 -11.7118
ltoes 0.529025
394
root 11.4005 10.1174 11.4002 -29.3422 -24.9779 -1.49027
lowerback 40.8325 -5.12924 -11.4166
upperback 14.5891 -11.5798 -1.68078
thorax -1.43543 -6.59887 7.83151
lowerneck 13.6429 -27.5212 -14.7319
upperneck -22.8215 -36.4006 35.9961
head 0.933323 -20.6481 11.2052
rclavicle 1.10127e-013 -3.26007e-014
rhumerus -19.4317 60.4039 -96.1299
rradius 41.2024
rwrist -38.7823
rhand 12.617 15.4143
rfingers 7.12502
rthumb 37.6041 -10.4915
lclavicle 1.10127e-013 -3.26007e-014
lhumerus -62.7312 -20.7096 109.322
lradius 66.6465
lwrist 79.0001
lhand -34.11 21.5935
lfingers 7.12502
lthumb -7.28578 51.448
rfemur -69.6331 2.15991 18.4265
rtibia 104.269
rfoot -6.6625 -9.6563
rtoes -3.77119
lfemur -69.2977 25.5951 0.00305891
ltibia 106.622
lfoot -5.72585 -11.2896
ltoes -0.296582
